<svg version="1" xmlns="http://www.w3.org/2000/svg" width="1024" height="1024" viewBox="0 0 768.000000 768.000000"><path d="M66.9.4c-.2.2-2.1.7-4.2 1-17.8 2.8-39 16.6-48.9 31.9-1.5 2.3-3.1 4.6-3.6 5.2-1.3 1.6-7 15.7-7.7 19-.3 1.7-.9 4.6-1.3 6.5C.8 65.9.5 210.6.5 385.5.5 687.3.6 703.8 2.3 710c2.2 8 9.7 23.3 13.8 28 7.1 8.3 9.7 10.7 14.4 14 2.8 1.9 5.2 3.8 5.5 4.2 1 1.3 15.3 7.5 21.5 9.4 5.7 1.8 19.4 1.9 324.5 2.1 312.8.2 318.6.1 326.4-1.8 30.6-7.5 53.4-31.9 58.5-62.4.7-3.9.9-116.1.8-323-.2-301-.3-317.3-2-323-2.3-7.9-10-23.1-13.8-27.5-7.1-8.3-9.7-10.7-14.4-14-2.7-1.9-5.2-3.8-5.5-4.2-1-1.3-15.3-7.5-21.5-9.4C704.8.6 690.9.5 385.9.3 210.7.1 67.2.2 66.9.4z"/></svg>